<svg width="20" height="20" viewBox="0 0 20 20" fill="none" xmlns="http://www.w3.org/2000/svg">
<g clip-path="url(#clip0)">
<path d="M17.1428 0C16.7483 0 16.4285 0.319796 16.4285 0.714299V3.32356C12.7511 -0.236719 6.88384 -0.141713 3.32356 3.53567C1.64569 5.26875 0.709652 7.58776 0.714297 9.99998C0.714297 10.3945 1.03409 10.7143 1.4286 10.7143C1.8231 10.7143 2.14285 10.3945 2.14285 9.99998C2.14373 5.66061 5.66216 2.14353 10.0016 2.1444C12.2054 2.14482 14.3077 3.07081 15.7957 4.69641L12.6315 5.75139C12.2567 5.87607 12.0539 6.28091 12.1786 6.65566C12.3033 7.03041 12.7081 7.23318 13.0829 7.1085L17.3686 5.67995C17.6611 5.58252 17.8581 5.3083 17.8572 4.99997V0.714257C17.8571 0.319796 17.5373 0 17.1428 0Z" fill="#0000FF"/>
<path d="M18.5714 9.28574C18.1769 9.28574 17.8571 9.60553 17.8571 10C17.8562 14.3394 14.3378 17.8565 9.99838 17.8556C7.79455 17.8552 5.69225 16.9292 4.20422 15.3036L7.36849 14.2486C7.74323 14.1239 7.94601 13.7191 7.82133 13.3443C7.69665 12.9696 7.29181 12.7668 6.91706 12.8915L2.63136 14.3201C2.33881 14.4175 2.14181 14.6917 2.14277 15V19.2857C2.14277 19.6802 2.46256 20 2.85707 20C3.25157 20 3.57137 19.6802 3.57137 19.2857V16.6764C7.24879 20.2367 13.1161 20.1417 16.6763 16.4643C18.3542 14.7313 19.2902 12.4122 19.2856 10C19.2857 9.60553 18.9659 9.28574 18.5714 9.28574Z" fill="#0000FF"/>
</g>
<defs>
<clipPath id="clip0">
<rect width="20" height="20" fill="white"/>
</clipPath>
</defs>
</svg>
