<svg width="20" height="20" viewBox="0 0 20 20" fill="none" xmlns="http://www.w3.org/2000/svg">
<path d="M7.66666 12C5.82568 12 4.33333 13.4924 4.33333 15.3333C4.33333 17.1743 5.82568 18.6667 7.66666 18.6667C9.50764 18.6667 11 17.1743 11 15.3333C10.998 13.4932 9.50683 12.002 7.66666 12ZM7.66666 18C6.19384 18 4.99999 16.8062 4.99999 15.3333C4.99999 13.8605 6.19384 12.6667 7.66666 12.6667C9.13948 12.6667 10.3333 13.8605 10.3333 15.3333C10.3317 16.8053 9.13867 17.9984 7.66666 18Z" fill="#A1A1A1"/>
<path d="M7.66666 14.3333C8.07373 14.3333 8.33333 14.5306 8.33333 14.6667H9C9 14.193 8.5804 13.8094 8 13.7V13.3333H7.33333V13.7C6.75292 13.8086 6.33333 14.1924 6.33333 14.6667C6.33333 15.2277 6.91894 15.6667 7.66666 15.6667C8.07373 15.6667 8.33333 15.8639 8.33333 16C8.33333 16.1361 8.07373 16.3333 7.66666 16.3333C7.2596 16.3333 6.99999 16.1361 6.99999 16H6.33333C6.33333 16.4736 6.75292 16.8573 7.33333 16.9666V17.3333H8V16.9666C8.5804 16.8581 9 16.4743 9 16C9 15.439 8.41438 15 7.66666 15C7.2596 15 6.99999 14.8027 6.99999 14.6667C6.99999 14.5306 7.2596 14.3333 7.66666 14.3333Z" fill="#A1A1A1"/>
<path d="M17 19.3333H3V11.3333H8.33333C8.88558 11.3333 9.33333 10.8856 9.33333 10.3333V2H13V6H17V10.6667H17.6667V5.52865L13.4714 1.33333H9.33333V1C9.33333 0.447754 8.88558 0 8.33333 0H1C0.447754 0 0 0.447754 0 1V10.3333C0 10.8856 0.447754 11.3333 1 11.3333H2.33333V20H17.6667V15.3333H17V19.3333ZM13.6667 2.47135L16.5286 5.33333H13.6667V2.47135ZM0.666667 10.3333V1C0.666667 0.815918 0.815918 0.666667 1 0.666667H8.33333C8.51741 0.666667 8.66667 0.815918 8.66667 1V10.3333C8.66667 10.5174 8.51741 10.6667 8.33333 10.6667H1C0.815918 10.6667 0.666667 10.5174 0.666667 10.3333Z" fill="#A1A1A1"/>
<path d="M10.6667 8.33334H11.3333V9.00001H10.6667V8.33334Z" fill="#A1A1A1"/>
<path d="M12 8.33334H16V9.00001H12V8.33334Z" fill="#A1A1A1"/>
<path d="M10.6667 7H11.3333V7.66667H10.6667V7Z" fill="#A1A1A1"/>
<path d="M12 7H16V7.66667H12V7Z" fill="#A1A1A1"/>
<path d="M10.6667 9.66666H11.3333V10.3333H10.6667V9.66666Z" fill="#A1A1A1"/>
<path d="M12 9.66666H16V10.3333H12V9.66666Z" fill="#A1A1A1"/>
<path d="M10.6667 11H11.3333V11.6667H10.6667V11Z" fill="#A1A1A1"/>
<path d="M12 11H16V11.6667H12V11Z" fill="#A1A1A1"/>
<path d="M8.33333 1H1V3.33333H8.33333V1ZM7.66667 2.66667H1.66667V1.66667H7.66667V2.66667Z" fill="#A1A1A1"/>
<path d="M2.66666 3.66666H1.99999C1.63183 3.66666 1.33333 3.96516 1.33333 4.33332V4.99999C1.33333 5.36815 1.63183 5.66666 1.99999 5.66666H2.66666C3.03483 5.66666 3.33333 5.36815 3.33333 4.99999V4.33332C3.33333 3.96516 3.03483 3.66666 2.66666 3.66666ZM1.99999 4.99999V4.33332H2.66666V4.99999H1.99999Z" fill="#A1A1A1"/>
<path d="M5 3.66666H4.33334C3.96517 3.66666 3.66667 3.96516 3.66667 4.33332V4.99999C3.66667 5.36815 3.96517 5.66666 4.33334 5.66666H5C5.36817 5.66666 5.66667 5.36815 5.66667 4.99999V4.33332C5.66667 3.96516 5.36817 3.66666 5 3.66666ZM4.33334 4.99999V4.33332H5V4.99999H4.33334Z" fill="#A1A1A1"/>
<path d="M7.33333 3.66666H6.66667C6.2985 3.66666 6 3.96516 6 4.33332V4.99999C6 5.36815 6.2985 5.66666 6.66667 5.66666H7.33333C7.7015 5.66666 8 5.36815 8 4.99999V4.33332C8 3.96516 7.7015 3.66666 7.33333 3.66666ZM6.66667 4.99999V4.33332H7.33333V4.99999H6.66667Z" fill="#A1A1A1"/>
<path d="M2.66666 6H1.99999C1.63183 6 1.33333 6.2985 1.33333 6.66667V7.33333C1.33333 7.7015 1.63183 8 1.99999 8H2.66666C3.03483 8 3.33333 7.7015 3.33333 7.33333V6.66667C3.33333 6.2985 3.03483 6 2.66666 6ZM1.99999 7.33333V6.66667H2.66666V7.33333H1.99999Z" fill="#A1A1A1"/>
<path d="M5 6H4.33334C3.96517 6 3.66667 6.2985 3.66667 6.66667V7.33333C3.66667 7.7015 3.96517 8 4.33334 8H5C5.36817 8 5.66667 7.7015 5.66667 7.33333V6.66667C5.66667 6.2985 5.36817 6 5 6ZM4.33334 7.33333V6.66667H5V7.33333H4.33334Z" fill="#A1A1A1"/>
<path d="M7.33333 6H6.66667C6.2985 6 6 6.2985 6 6.66667V7.33333C6 7.7015 6.2985 8 6.66667 8H7.33333C7.7015 8 8 7.7015 8 7.33333V6.66667C8 6.2985 7.7015 6 7.33333 6ZM6.66667 7.33333V6.66667H7.33333V7.33333H6.66667Z" fill="#A1A1A1"/>
<path d="M2.66666 8.33334H1.99999C1.63183 8.33334 1.33333 8.63185 1.33333 9.00001V9.66668C1.33333 10.0348 1.63183 10.3333 1.99999 10.3333H2.66666C3.03483 10.3333 3.33333 10.0348 3.33333 9.66668V9.00001C3.33333 8.63185 3.03483 8.33334 2.66666 8.33334ZM1.99999 9.66668V9.00001H2.66666V9.66668H1.99999Z" fill="#A1A1A1"/>
<path d="M5 8.33334H4.33334C3.96517 8.33334 3.66667 8.63185 3.66667 9.00001V9.66668C3.66667 10.0348 3.96517 10.3333 4.33334 10.3333H5C5.36817 10.3333 5.66667 10.0348 5.66667 9.66668V9.00001C5.66667 8.63185 5.36817 8.33334 5 8.33334ZM4.33334 9.66668V9.00001H5V9.66668H4.33334Z" fill="#A1A1A1"/>
<path d="M7.33333 8.33334H6.66667C6.2985 8.33334 6 8.63185 6 9.00001V9.66668C6 10.0348 6.2985 10.3333 6.66667 10.3333H7.33333C7.7015 10.3333 8 10.0348 8 9.66668V9.00001C8 8.63185 7.7015 8.33334 7.33333 8.33334ZM6.66667 9.66668V9.00001H7.33333V9.66668H6.66667Z" fill="#A1A1A1"/>
<path d="M19.6973 10.6361C19.3016 10.2583 18.679 10.2583 18.2834 10.6361L12.569 16.3503C12.5413 16.3783 12.5187 16.4108 12.5023 16.4466L11.6976 18.194C11.6395 18.3206 11.6663 18.4702 11.765 18.5687C11.8634 18.6673 12.013 18.6942 12.1396 18.6361L13.887 17.8314C13.9229 17.815 13.9554 17.7925 13.9834 17.7647L19.6973 12.0503C20.0879 11.6598 20.0879 11.0265 19.6973 10.6361V10.6361ZM13.5537 17.2507L12.6803 17.653L13.0827 16.7796L17.3433 12.5187L17.8146 12.9901L13.5537 17.2507ZM18.2869 12.5173L17.8156 12.0461L18.049 11.8127L18.5203 12.284L18.2869 12.5173ZM19.227 11.5773L18.9914 11.813L18.52 11.3416L18.756 11.106C18.8877 10.98 19.0952 10.98 19.227 11.106C19.3571 11.2362 19.3571 11.4471 19.227 11.5773Z" fill="#A1A1A1"/>
</svg>
