<svg width="20" height="20" viewBox="0 0 20 20" fill="none" xmlns="http://www.w3.org/2000/svg">
<path d="M17.5375 3.61885C17.1734 2.2484 15.9101 1.24197 14.4754 1.24197H3.16916C1.43469 1.24197 0 2.65525 0 4.41114V9.65739C0 11.1349 1.04925 12.4197 2.46253 12.7409C2.80514 14.1114 4.04711 15.1178 5.52462 15.1178H5.99572V18.2869C5.99572 18.4582 6.10278 18.6296 6.25268 18.7152C6.31692 18.7366 6.38116 18.758 6.46681 18.758C6.57388 18.758 6.65953 18.7152 6.74518 18.651L11.3276 15.1178H16.8308C18.5653 15.1178 20 13.7045 20 11.9486V6.70236C20 5.20343 18.9507 3.94005 17.5375 3.61885ZM2.35546 6.70236V11.7345C1.52034 11.4133 0.942184 10.5996 0.942184 9.65739V4.41114C0.942184 3.19058 1.94861 2.18416 3.16916 2.18416H14.4968C15.3961 2.18416 16.1884 2.7409 16.531 3.53319H5.52462C3.79015 3.53319 2.35546 4.94647 2.35546 6.70236ZM19.0792 11.9486H19.0578C19.0578 13.1692 18.0514 14.1756 16.8308 14.1756H11.1777C11.0707 14.1756 10.9636 14.2184 10.8994 14.2827L6.9379 17.3448V14.6467C6.9379 14.3897 6.72377 14.1756 6.46681 14.1756H5.52462C4.30407 14.1756 3.29764 13.1692 3.29764 11.9486V6.70236C3.29764 5.4818 4.30407 4.47538 5.52462 4.47538H16.8522C18.0728 4.47538 19.0792 5.4818 19.0792 6.70236V11.9486V11.9486Z" fill="#A1A1A1"/>
<path d="M15.9957 6.55246H6.35974C6.10278 6.55246 5.88865 6.76659 5.88865 7.02356C5.88865 7.28052 6.10278 7.49465 6.35974 7.49465H15.9957C16.2527 7.49465 16.4668 7.28052 16.4668 7.02356C16.4668 6.76659 16.2527 6.55246 15.9957 6.55246Z" fill="#A1A1A1"/>
<path d="M15.9957 8.60815H6.35974C6.10278 8.60815 5.88865 8.82229 5.88865 9.07925C5.88865 9.33621 6.10278 9.55034 6.35974 9.55034H15.9957C16.2527 9.55034 16.4668 9.33621 16.4668 9.07925C16.4668 8.82229 16.2527 8.60815 15.9957 8.60815Z" fill="#A1A1A1"/>
<path d="M15.9957 10.6852H6.35974C6.10278 10.6852 5.88865 10.8993 5.88865 11.1563C5.88865 11.4133 6.10278 11.6274 6.35974 11.6274H15.9957C16.2527 11.6274 16.4668 11.4133 16.4668 11.1563C16.4668 10.8779 16.2527 10.6852 15.9957 10.6852Z" fill="#A1A1A1"/>
</svg>
