<svg width="2812" height="512" viewBox="0 0 2812 512" fill="none" xmlns="http://www.w3.org/2000/svg">
<g clip-path="url(#clip0)">
<path d="M490.171 278.926L469.199 272.209C464.181 270.602 460.283 266.639 458.702 261.613C434.569 184.871 344.954 149.628 254.751 149.628C149.219 149.628 63.668 197.853 63.668 304.35C63.668 365.728 93.772 408.718 140.283 433.547C141.427 434.158 142.242 435.243 142.487 436.516L152.907 490.64C153.872 495.739 158.328 499.43 163.517 499.43H198.704C203.893 499.43 208.349 495.739 209.314 490.64L215.01 460.549C215.43 458.329 217.499 456.833 219.743 457.094C231.092 458.412 242.792 459.073 254.75 459.073C270.733 459.073 286.696 457.893 302.282 455.537C304.572 455.191 306.731 456.697 307.162 458.973L313.156 490.641C314.121 495.74 318.577 499.431 323.766 499.431H358.953C364.142 499.431 368.598 495.74 369.563 490.641L380.386 433.336C380.63 432.042 381.462 430.94 382.631 430.332C410.252 415.971 433.103 396.214 447.677 371.026C449.619 367.669 452.69 365.112 456.384 363.929L490.172 353.106C498.738 350.362 504.55 342.398 504.55 333.404V298.628C504.549 289.633 498.737 281.669 490.171 278.926Z" fill="#FF7BAC"/>
<path d="M501.914 288.556C501.002 286.923 499.882 285.413 498.566 284.082C498.538 284.054 498.513 284.022 498.484 283.994C496.208 281.718 493.383 279.955 490.171 278.926L474.624 273.946V292.235C474.624 314.956 460.147 335.152 438.629 342.45C428.844 345.584 420.384 351.784 414.185 359.978C406.595 370.012 397.575 379.028 387.409 387.031C375.425 396.465 367.341 409.965 365.031 425.04C363.384 435.79 362.107 450.241 361.294 458.369C360.668 464.62 355.413 469.381 349.13 469.381H331.714C326.525 469.381 322.069 465.69 321.104 460.591L315.11 425.942C314.679 423.666 312.521 422.16 310.231 422.506C294.646 424.861 270.734 426.042 254.751 426.042C242.793 426.042 221.158 425.381 209.809 424.063C207.565 423.802 205.496 425.298 205.075 427.519L199.379 459.597C198.414 464.696 193.958 468.387 188.769 468.387H171.465C166.276 468.387 161.82 464.696 160.855 459.597L152.422 409.447C152.177 408.174 151.362 407.088 150.219 406.478C107.954 383.916 69.308 340.392 64.416 287.667C64.416 287.668 64.416 287.669 64.416 287.67C64.3 288.964 64.198 290.268 64.107 291.58C64.105 291.606 64.104 291.632 64.102 291.658C64.093 291.788 64.085 291.918 64.077 292.047C63.999 293.227 63.931 294.414 63.875 295.608C63.852 296.104 63.836 296.605 63.818 297.103C63.783 298.014 63.747 298.924 63.724 299.844C63.69 301.335 63.667 302.835 63.667 304.35C63.667 312.022 64.137 319.407 65.051 326.505C66.171 335.201 67.963 343.462 70.366 351.298C70.497 351.726 70.634 352.151 70.769 352.577C71.103 353.631 71.45 354.681 71.809 355.726C71.952 356.143 72.094 356.561 72.24 356.976C73.228 359.766 74.298 362.498 75.446 365.173C75.568 365.457 75.689 365.741 75.813 366.024C76.379 367.318 76.961 368.601 77.564 369.868C77.664 370.078 77.768 370.285 77.868 370.494C78.43 371.66 79.011 372.817 79.605 373.967C79.707 374.164 79.807 374.363 79.91 374.56C80.558 375.794 81.227 377.013 81.911 378.22C82.06 378.482 82.21 378.743 82.361 379.004C84.576 382.851 86.97 386.558 89.536 390.127C89.781 390.468 90.031 390.806 90.28 391.144C90.903 391.993 91.536 392.834 92.178 393.667C92.431 393.995 92.682 394.324 92.938 394.65C93.807 395.755 94.687 396.85 95.59 397.927C95.598 397.937 95.607 397.947 95.615 397.957C96.519 399.034 97.445 400.092 98.382 401.141C98.666 401.459 98.955 401.773 99.242 402.088C99.942 402.857 100.651 403.617 101.369 404.37C101.659 404.674 101.947 404.979 102.239 405.28C103.222 406.292 104.216 407.294 105.231 408.278C105.233 408.28 105.236 408.283 105.238 408.285C106.369 409.381 107.52 410.459 108.691 411.519C111.032 413.639 113.45 415.688 115.942 417.666C118.434 419.644 121.001 421.551 123.638 423.386C124.957 424.304 126.293 425.204 127.647 426.087C128.866 426.881 130.103 427.657 131.349 428.422C131.707 428.642 132.069 428.859 132.43 429.076C133.372 429.644 134.319 430.204 135.271 430.754C135.648 430.972 136.024 431.191 136.404 431.406C137.686 432.133 138.976 432.85 140.284 433.549C140.57 433.702 140.835 433.884 141.076 434.091C141.293 434.278 141.483 434.491 141.657 434.715C141.709 434.781 141.754 434.851 141.801 434.921C141.921 435.094 142.026 435.276 142.119 435.466C142.156 435.542 142.195 435.615 142.228 435.694C142.338 435.959 142.431 436.232 142.487 436.519L152.907 490.643C153.028 491.28 153.203 491.896 153.427 492.484C153.539 492.778 153.664 493.066 153.8 493.347C153.936 493.628 154.084 493.901 154.242 494.167C154.4 494.433 154.57 494.691 154.75 494.941C154.931 495.192 155.122 495.434 155.322 495.668C155.549 495.933 155.792 496.182 156.043 496.423C156.122 496.499 156.206 496.57 156.288 496.644C156.469 496.807 156.654 496.966 156.846 497.116C156.942 497.192 157.04 497.266 157.139 497.338C157.336 497.482 157.538 497.618 157.744 497.749C157.837 497.808 157.928 497.87 158.023 497.926C158.322 498.103 158.628 498.27 158.944 498.418C158.949 498.42 158.953 498.422 158.958 498.424C159.274 498.571 159.6 498.7 159.931 498.816C160.036 498.853 160.143 498.883 160.249 498.917C160.485 498.992 160.724 499.061 160.966 499.119C161.088 499.149 161.211 499.176 161.335 499.202C161.58 499.252 161.828 499.293 162.079 499.326C162.192 499.341 162.304 499.36 162.418 499.371C162.779 499.408 163.143 499.431 163.512 499.432C163.514 499.432 163.516 499.432 163.517 499.432H198.704C200.326 499.432 201.876 499.072 203.27 498.42C203.828 498.159 204.36 497.852 204.863 497.503C205.365 497.154 205.838 496.763 206.274 496.334C206.929 495.691 207.503 494.963 207.979 494.166C208.613 493.103 209.073 491.916 209.314 490.642L215.01 460.551V460.55C215.057 460.3 215.132 460.062 215.219 459.832C215.245 459.763 215.275 459.699 215.305 459.632C215.378 459.467 215.459 459.308 215.551 459.155C215.587 459.094 215.622 459.033 215.661 458.974C215.794 458.776 215.937 458.586 216.099 458.415C216.54 457.948 217.091 457.601 217.694 457.369C217.752 457.346 217.81 457.325 217.869 457.304C218.014 457.255 218.159 457.213 218.309 457.18C218.423 457.154 218.54 457.138 218.657 457.121C218.77 457.106 218.881 457.086 218.996 457.08C219.241 457.065 219.49 457.066 219.743 457.096C221.634 457.316 223.539 457.51 225.45 457.693C225.928 457.739 226.407 457.784 226.886 457.827C228.796 458.001 230.712 458.163 232.64 458.3C232.649 458.301 232.659 458.301 232.668 458.302C234.596 458.439 236.535 458.551 238.48 458.652C238.97 458.677 239.46 458.701 239.951 458.725C241.904 458.816 243.863 458.897 245.832 458.952C248.788 459.035 251.761 459.076 254.751 459.076C258.747 459.076 262.741 459.002 266.729 458.855C268.771 458.78 270.811 458.684 272.848 458.569C273.055 458.557 273.262 458.541 273.469 458.529C275.32 458.421 277.169 458.302 279.015 458.162C279.058 458.159 279.101 458.154 279.144 458.151C283.192 457.843 287.227 457.459 291.243 456.999C291.255 456.998 291.268 456.996 291.28 456.995C293.117 456.784 294.949 456.559 296.778 456.318C297.662 456.201 298.542 456.069 299.423 455.944C300.393 455.807 301.365 455.679 302.332 455.532C304.292 455.235 306.142 456.338 306.888 458.095C306.898 458.118 306.913 458.138 306.922 458.161C307.026 458.419 307.107 458.691 307.161 458.975L310.158 474.809L313.155 490.643C314.12 495.742 318.576 499.433 323.765 499.433H358.952C358.954 499.433 358.956 499.433 358.957 499.433C359.326 499.433 359.69 499.409 360.051 499.372C360.165 499.36 360.277 499.342 360.39 499.327C360.64 499.294 360.889 499.253 361.134 499.203C361.257 499.178 361.38 499.15 361.502 499.121C361.745 499.062 361.983 498.994 362.22 498.918C362.326 498.884 362.433 498.854 362.537 498.817C362.87 498.7 363.197 498.571 363.515 498.423C363.517 498.422 363.518 498.421 363.52 498.421C363.838 498.273 364.145 498.105 364.446 497.927C364.541 497.871 364.632 497.809 364.725 497.75C364.932 497.619 365.134 497.483 365.331 497.338C365.429 497.266 365.526 497.192 365.622 497.117C365.814 496.966 366 496.807 366.181 496.644C366.262 496.571 366.346 496.5 366.425 496.424C366.676 496.183 366.919 495.933 367.146 495.669C367.235 495.566 367.315 495.454 367.4 495.347C367.698 494.972 367.979 494.583 368.227 494.168C368.544 493.637 368.818 493.074 369.042 492.485C369.266 491.896 369.442 491.281 369.562 490.644L371.934 478.087L374.399 465.037L375.945 456.853L380.386 433.339L380.784 431.23C381.513 430.869 381.807 430.723 382.536 430.362C382.564 430.371 382.581 430.367 382.595 430.359C382.608 430.352 382.618 430.342 382.631 430.335C383.475 429.896 384.3 429.436 385.135 428.988C386.008 428.518 386.891 428.059 387.755 427.578C388.503 427.161 389.233 426.725 389.974 426.3C390.906 425.765 391.846 425.24 392.765 424.693C393.522 424.242 394.259 423.771 395.007 423.312C395.889 422.77 396.78 422.237 397.65 421.683C398.43 421.186 399.189 420.668 399.959 420.161C400.776 419.623 401.604 419.094 402.41 418.545C403.171 418.026 403.91 417.486 404.661 416.957C405.453 416.399 406.256 415.85 407.035 415.281C407.762 414.75 408.467 414.199 409.183 413.658C409.964 413.069 410.756 412.489 411.525 411.888C412.22 411.344 412.893 410.78 413.577 410.227C414.342 409.609 415.118 409 415.87 408.37C416.562 407.79 417.229 407.19 417.909 406.6C418.629 405.975 419.361 405.36 420.068 404.724C420.728 404.13 421.362 403.517 422.01 402.913C422.712 402.259 423.426 401.615 424.114 400.95C424.742 400.342 425.345 399.714 425.962 399.097C426.643 398.415 427.335 397.744 428.001 397.05C428.607 396.419 429.187 395.767 429.781 395.126C430.43 394.426 431.091 393.735 431.724 393.023C432.302 392.373 432.853 391.703 433.418 391.044C434.039 390.319 434.673 389.605 435.278 388.869C435.829 388.2 436.351 387.51 436.889 386.83C437.48 386.083 438.084 385.346 438.659 384.587C439.187 383.89 439.687 383.172 440.202 382.465C440.756 381.704 441.323 380.952 441.861 380.179C442.364 379.456 442.837 378.713 443.325 377.98C443.844 377.201 444.377 376.432 444.879 375.642C445.503 374.661 446.073 373.644 446.697 372.664C447.067 372.082 447.414 371.487 447.76 370.891C449.66 367.62 452.658 365.128 456.262 363.974L456.384 363.935H456.385L473.623 358.414L490.174 353.113C498.74 350.369 504.551 342.405 504.551 333.411V298.628C504.551 295.555 503.859 292.609 502.624 289.944C502.403 289.472 502.167 289.009 501.914 288.556Z" fill="#E8679C"/>
<path d="M336.717 168.411C337.787 163.331 341.301 159.107 346.021 156.947C364.157 148.646 410.365 128.669 422.243 134.892C437.119 142.684 429.327 226.802 406.659 239.641C384.764 252.041 321.234 241.89 336.717 168.411Z" fill="#E8679C"/>
<path d="M230.68 201.068C282.733 201.068 324.93 158.871 324.93 106.818C324.93 54.7652 282.733 12.568 230.68 12.568C178.627 12.568 136.43 54.7652 136.43 106.818C136.43 158.871 178.627 201.068 230.68 201.068Z" fill="#FFB125"/>
<path d="M415.936 144.637C405.592 144.637 380.545 153.161 350.569 166.883C348.932 167.632 347.751 169.046 347.41 170.663C343.042 191.395 345.378 208.081 354.168 218.915C355.196 220.182 356.323 221.374 357.537 222.489C358.951 223.788 361.23 223.06 361.7 221.199C372.119 179.94 422.677 144.637 415.936 144.637Z" fill="#FF7BAC"/>
<path d="M298.48 41.354L165.22 174.615C202.112 210.258 260.91 209.877 297.326 173.461C333.742 137.045 334.123 78.246 298.48 41.354Z" fill="#FF901D"/>
<path d="M228.513 153.579C212.225 153.316 201.191 144.515 201.191 138.079C201.191 134.926 203.949 130.591 207.233 130.591C211.568 130.591 215.114 139.786 228.513 140.837V109.968C216.691 105.765 203.555 101.036 203.555 84.222C203.555 67.671 216.034 61.103 228.513 59.789V55.98C228.513 54.404 230.089 52.959 232.323 52.959C234.293 52.959 236.264 54.404 236.264 55.98V59.527C245.196 59.79 257.807 62.548 257.807 68.985C257.807 71.481 255.968 76.472 252.027 76.472C248.875 76.472 245.459 72.269 236.264 71.612V98.277C247.692 102.48 260.171 108.26 260.171 126.125C260.171 142.282 250.451 151.214 236.264 153.185V157.651C236.264 159.227 234.294 160.672 232.323 160.672C230.09 160.672 228.513 159.227 228.513 157.651V153.579ZM229.302 95.781V71.875C221.946 72.794 216.692 76.078 216.692 82.909C216.691 90.396 222.339 93.154 229.302 95.781ZM235.475 112.858V140.574C242.568 139.26 247.034 135.057 247.034 127.569C247.035 119.294 241.912 115.616 235.475 112.858Z" fill="#DD7219"/>
<path d="M429.954 278.063C429.954 273.947 426.618 270.612 422.503 270.612C418.388 270.612 415.052 273.948 415.052 278.063C415.052 283.28 410.808 287.524 405.591 287.524C400.375 287.524 396.13 283.28 396.13 278.063C396.13 273.947 392.794 270.612 388.679 270.612C384.564 270.612 381.228 273.948 381.228 278.063C381.228 291.497 392.158 302.426 405.591 302.426C419.024 302.426 429.954 291.496 429.954 278.063Z" fill="black"/>
<g filter="url(#filter0_d)">
<path d="M492.444 271.83L471.472 265.112C468.786 264.251 466.669 262.107 465.81 259.376C461.39 245.323 454.72 232.13 445.985 220.162C442.004 214.707 437.577 209.498 432.741 204.539C435.835 190.966 437.517 175.606 437.298 162.334C436.986 143.349 433.192 132.214 425.7 128.29C421.665 126.174 409.385 119.746 342.918 150.172C341.344 150.892 339.874 151.779 338.513 152.795C334.032 151.591 329.452 150.477 324.844 149.477C324.289 149.356 323.717 149.249 323.158 149.131C328.544 137.365 331.689 124.586 332.28 111.394C332.464 107.282 329.281 103.8 325.169 103.617C321.068 103.413 317.575 106.615 317.392 110.727C316.421 132.418 307.423 152.827 292.057 168.194C282.876 177.375 272.126 184.044 260.669 188.244C240.8 185.456 220.562 185.456 200.693 188.244C189.235 184.044 178.486 177.375 169.305 168.194C152.911 151.8 143.882 130.003 143.882 106.818C143.882 83.632 152.911 61.836 169.305 45.442C185.699 29.047 207.497 20.018 230.681 20.018C253.865 20.018 275.663 29.047 292.057 45.442C298.645 52.03 304.089 59.548 308.238 67.785C310.089 71.461 314.57 72.941 318.245 71.089C321.921 69.239 323.4 64.758 321.549 61.083C316.686 51.424 310.309 42.617 302.596 34.903C283.387 15.694 257.847 5.11501 230.682 5.11501C203.517 5.11501 177.977 15.694 158.768 34.903C139.559 54.113 128.98 79.652 128.98 106.817C128.98 133.982 139.559 159.522 158.768 178.731C164.309 184.272 170.337 189.037 176.713 193.029C176.715 193.029 176.717 193.028 176.719 193.028C172.086 194.232 167.488 195.584 162.941 197.104C159.038 198.409 156.932 202.63 158.237 206.534C159.541 210.437 163.764 212.543 167.666 211.239C208.302 197.654 253.062 197.654 293.698 211.239C294.482 211.501 295.278 211.625 296.061 211.625C299.178 211.625 302.084 209.653 303.127 206.534C304.432 202.631 302.326 198.409 298.423 197.104C293.876 195.584 289.278 194.231 284.645 193.028C284.647 193.028 284.649 193.029 284.651 193.029C291.028 189.037 297.055 184.272 302.596 178.731C307.498 173.829 311.825 168.476 315.582 162.787C317.636 163.186 319.675 163.604 321.684 164.04C324.36 164.621 327.024 165.245 329.664 165.9C329.581 166.224 329.496 166.547 329.427 166.876C325.793 184.121 326.029 199.373 330.128 212.206C333.812 223.741 340.461 233.086 349.888 239.983C360.999 248.111 374.413 251.622 386.564 251.622C395.709 251.622 404.14 249.632 410.332 246.125C417.336 242.158 423.204 233.799 427.849 221.249C429.996 223.755 432.031 226.322 433.949 228.95C441.726 239.604 447.663 251.346 451.595 263.848C453.904 271.191 459.636 276.969 466.927 279.306L487.899 286.024C493.402 287.787 497.099 292.852 497.099 298.63V333.405C497.099 339.183 493.402 344.248 487.899 346.011L454.11 356.834C448.704 358.567 444.129 362.282 441.228 367.296C427.953 390.238 407.082 409.223 379.191 423.724C375.969 425.401 373.737 428.4 373.065 431.954L362.243 489.257C361.944 490.836 360.561 491.981 358.954 491.981H323.767C322.16 491.981 320.777 490.835 320.478 489.257L314.484 457.588C313.304 451.357 307.46 447.218 301.17 448.171C286.013 450.463 270.395 451.624 254.752 451.624C243.114 451.624 231.625 450.975 220.602 449.694C214.507 448.993 208.829 453.148 207.69 459.166L201.994 489.257C201.695 490.836 200.312 491.981 198.705 491.981H163.518C161.911 491.981 160.528 490.835 160.225 489.233L149.805 435.111C149.134 431.624 146.944 428.659 143.793 426.976C96.25 401.594 71.12 359.191 71.12 304.351C71.12 276.643 77.182 252.142 89.137 231.526C100.293 212.287 116.587 196.38 137.566 184.245C141.128 182.184 142.345 177.626 140.285 174.063C138.225 170.501 133.667 169.286 130.104 171.344C89.425 194.875 64.89 231.18 58.135 277.289V277.288C57.418 277.223 56.7 277.161 55.985 277.087C56.115 272.112 55.215 267.092 53.255 262.22C48.932 251.474 40.052 243.718 30.631 242.461C23.207 241.467 16.142 244.619 11.239 251.097C4.13 260.491 5.289 267.925 7.512 272.507C11.265 280.24 20.912 285.71 36.921 289.149C36.481 289.808 35.997 290.47 35.467 291.135C26.008 302.998 14.864 305.621 7.628 305.868C3.392 306.012 0 309.413 0 313.652V313.688C0 317.869 3.299 321.279 7.476 321.47C8.011 321.495 8.57 321.508 9.152 321.508C18.308 321.508 33.003 318.131 47.121 300.428C49.35 297.634 51.166 294.686 52.562 291.64C53.968 291.799 55.319 291.935 56.613 292.055C56.613 292.052 56.613 292.05 56.614 292.047C56.36 296.085 56.219 300.182 56.219 304.351C56.219 335.379 63.616 363.044 78.203 386.581C91.653 408.281 110.91 426.049 135.458 439.411L145.588 492.027C147.217 500.635 154.758 506.883 163.519 506.883H198.706C207.467 506.883 215.008 500.635 216.637 492.027L221.787 464.819C232.483 465.952 243.557 466.526 254.752 466.526C270.112 466.526 285.454 465.456 300.406 463.344L305.835 492.029C307.465 500.637 315.006 506.884 323.766 506.884H358.953C367.714 506.884 375.255 500.636 376.885 492.025L387.422 436.234C417.19 420.493 439.628 399.815 454.126 374.759C455.171 372.953 456.78 371.628 458.656 371.027L492.444 360.204C504.141 356.455 512 345.686 512 333.403V298.628C512 286.346 504.141 275.577 492.444 271.83ZM421.278 183.273C418.41 207.799 410.717 228.779 402.987 233.157C394.201 238.134 373.916 239.095 358.686 227.954C343.438 216.8 338.363 196.742 344.008 169.948C344.575 167.257 346.487 164.928 349.122 163.722C386.426 146.646 407.933 141.061 415.923 141.061C417.129 141.061 418.027 141.188 418.625 141.422C421.025 143.979 424.173 158.521 421.278 183.273ZM20.921 266.001C20.15 264.411 21.97 261.616 23.124 260.09C24.953 257.674 26.638 257.18 27.911 257.18C28.18 257.18 28.431 257.202 28.661 257.233C32.087 257.69 36.887 261.46 39.43 267.781C40.029 269.269 40.807 271.734 40.989 274.808C30.674 272.67 22.66 269.589 20.921 266.001Z" fill="black"/>
</g>
</g>
<path d="M576.16 434.32V296.08L607.84 264.4H695.968L726.496 294.928V313.36H704.608V302.128L686.176 283.984H617.632L598.048 303.28V427.12L617.632 446.416H685.024L704.608 427.12V380.464H659.104V360.88H726.496V434.32L694.816 466H607.84L576.16 434.32ZM761.155 442.384V405.808L784.771 382.48H861.379V355.12L846.979 341.008H798.019L783.619 355.12V366.928H762.307V349.072L788.803 322.576H855.907L882.403 349.072V466H861.955V440.656L835.459 466H784.771L761.155 442.384ZM831.139 447.568L861.379 418.48V400.912H793.987L782.467 412.144V436.336L793.987 447.568H831.139ZM916.9 442.384V424.528H938.212V436.336L949.732 447.568H1002.72L1014.24 436.336V414.16L1002.72 402.64H940.804L918.052 379.888V346.192L941.668 322.576H1009.06L1032.68 346.192V364.048H1011.36V352.24L999.844 341.008H950.884L939.364 352.24V373.264L950.884 384.784H1011.94L1035.56 408.4V442.384L1011.94 466H940.516L916.9 442.384ZM1084.44 439.504V341.296H1058.52V322.576H1085.01V275.92H1105.75V322.576H1150.68V341.296H1105.75V432.88L1120.15 447.28H1150.68V466H1110.93L1084.44 439.504ZM1176.6 439.504V349.072L1203.09 322.576H1276.82L1303.31 349.072V439.504L1276.82 466H1203.09L1176.6 439.504ZM1267.6 446.992L1282 432.88V355.696L1267.6 341.584H1212.31L1197.91 355.696V432.88L1212.31 446.992H1267.6ZM1336.53 442.384V424.528H1357.84V436.336L1369.36 447.568H1422.35L1433.87 436.336V414.16L1422.35 402.64H1360.43L1337.68 379.888V346.192L1361.29 322.576H1428.69L1452.3 346.192V364.048H1430.99V352.24L1419.47 341.008H1370.51L1358.99 352.24V373.264L1370.51 384.784H1431.57L1455.18 408.4V442.384L1431.57 466H1360.14L1336.53 442.384ZM1559.97 434.32V296.08L1591.65 264.4H1678.05L1708.58 294.928V313.36H1686.69V302.128L1668.26 283.984H1601.44L1581.86 303.28V427.12L1601.44 446.416H1668.26L1686.69 428.272V417.04H1708.58V435.472L1678.05 466H1591.65L1559.97 434.32ZM1740.22 439.504V349.072L1766.72 322.576H1840.44L1866.94 349.072V439.504L1840.44 466H1766.72L1740.22 439.504ZM1831.23 446.992L1845.63 432.88V355.696L1831.23 341.584H1775.93L1761.53 355.696V432.88L1775.93 446.992H1831.23ZM1907.35 322.576H1928.09V350.224L1955.73 322.576H1990.01L2012.47 345.04L2034.93 322.576H2080.15L2106.65 349.072V466H2085.33V355.696L2070.93 341.584H2039.25L2019.09 361.744V466H1998.36V355.696L1983.96 341.584H1959.77L1928.66 372.688V466H1907.35V322.576ZM2146.94 439.504V322.576H2168.25V432.88L2182.65 446.992H2211.45L2247.17 411.28V322.576H2268.48V466H2247.74V435.472L2217.21 466H2173.44L2146.94 439.504ZM2311.79 322.576H2332.52V353.104L2363.05 322.576H2407.12L2433.61 349.072V466H2412.3V355.696L2397.9 341.584H2368.81L2333.1 377.296V466H2311.79V322.576ZM2472.6 439.504V349.072L2499.09 322.576H2571.38L2598.16 349.072V400.624H2493.91V432.88L2508.31 446.992H2562.16L2576.56 432.88V421.936H2597.88V439.504L2571.38 466H2499.09L2472.6 439.504ZM2576.85 382.192V355.696L2562.45 341.584H2508.31L2493.91 355.696V382.192H2576.85ZM2629.71 442.384V424.528H2651.02V436.336L2662.54 447.568H2715.54L2727.06 436.336V414.16L2715.54 402.64H2653.62L2630.86 379.888V346.192L2654.48 322.576H2721.87L2745.49 346.192V364.048H2724.18V352.24L2712.66 341.008H2663.7L2652.18 352.24V373.264L2663.7 384.784H2724.75L2748.37 408.4V442.384L2724.75 466H2653.33L2629.71 442.384Z" fill="black"/>
<defs>
<filter id="filter0_d" x="-4" y="5.11501" width="520" height="509.769" filterUnits="userSpaceOnUse" color-interpolation-filters="sRGB">
<feFlood flood-opacity="0" result="BackgroundImageFix"/>
<feColorMatrix in="SourceAlpha" type="matrix" values="0 0 0 0 0 0 0 0 0 0 0 0 0 0 0 0 0 0 127 0" result="hardAlpha"/>
<feOffset dy="4"/>
<feGaussianBlur stdDeviation="2"/>
<feComposite in2="hardAlpha" operator="out"/>
<feColorMatrix type="matrix" values="0 0 0 0 0 0 0 0 0 0 0 0 0 0 0 0 0 0 0.25 0"/>
<feBlend mode="normal" in2="BackgroundImageFix" result="effect1_dropShadow"/>
<feBlend mode="normal" in="SourceGraphic" in2="effect1_dropShadow" result="shape"/>
</filter>
<clipPath id="clip0">
<rect width="512" height="512" fill="white"/>
</clipPath>
</defs>
</svg>
