<svg width="20" height="20" viewBox="0 0 20 20" fill="none" xmlns="http://www.w3.org/2000/svg">
<g clip-path="url(#clip0)">
<path d="M7.27275 0H1.8182C0.815413 0 0 0.815413 0 1.8182V7.27275C0 8.27549 0.815413 9.09094 1.8182 9.09094H7.27275C8.27549 9.09094 9.09094 8.27553 9.09094 7.27275V1.8182C9.0909 0.815413 8.27549 0 7.27275 0ZM8.18182 7.27275C8.18182 7.77388 7.77388 8.18182 7.27275 8.18182H1.8182C1.31706 8.18182 0.90912 7.77388 0.90912 7.27275V1.8182C0.90912 1.31706 1.31706 0.90912 1.8182 0.90912H7.27275C7.77388 0.90912 8.18182 1.31706 8.18182 1.8182V7.27275Z" fill="#0000FF"/>
<path d="M18.1818 0H12.7273C11.7245 0 10.9091 0.815413 10.9091 1.8182V7.27275C10.9091 8.27549 11.7245 9.09094 12.7273 9.09094H18.1818C19.1846 9.09094 20 8.27553 20 7.27275V1.8182C20 0.815413 19.1846 0 18.1818 0ZM19.0909 7.27275C19.0909 7.77388 18.683 8.18182 18.1818 8.18182H12.7273C12.2262 8.18182 11.8182 7.77388 11.8182 7.27275V1.8182C11.8182 1.31706 12.2262 0.90912 12.7273 0.90912H18.1818C18.683 0.90912 19.0909 1.31706 19.0909 1.8182V7.27275Z" fill="#0000FF"/>
<path d="M7.27275 10.9091H1.8182C0.815413 10.9091 0 11.7245 0 12.7273V18.1818C0 19.1846 0.815413 20 1.8182 20H7.27275C8.27549 20 9.09094 19.1846 9.09094 18.1818V12.7273C9.0909 11.7245 8.27549 10.9091 7.27275 10.9091ZM8.18182 18.1818C8.18182 18.683 7.77388 19.0909 7.27275 19.0909H1.8182C1.31706 19.0909 0.90912 18.683 0.90912 18.1818V12.7273C0.90912 12.2261 1.31706 11.8182 1.8182 11.8182H7.27275C7.77388 11.8182 8.18182 12.2261 8.18182 12.7273V18.1818Z" fill="#0000FF"/>
<path d="M17.7273 15H15.9091V13.1818C15.9091 12.9306 15.7058 12.7273 15.4545 12.7273C15.2033 12.7273 15 12.9306 15 13.1818V15H13.1818C12.9305 15 12.7272 15.2033 12.7272 15.4546C12.7272 15.7058 12.9305 15.9091 13.1818 15.9091H15V17.7273C15 17.9785 15.2033 18.1819 15.4546 18.1819C15.7058 18.1819 15.9091 17.9785 15.9091 17.7273V15.9091H17.7273C17.9785 15.9091 18.1818 15.7058 18.1818 15.4545C18.1818 15.2033 17.9785 15 17.7273 15Z" fill="#0000FF"/>
</g>
<defs>
<clipPath id="clip0">
<rect width="20" height="20" fill="white"/>
</clipPath>
</defs>
</svg>
