<svg width="20" height="20" viewBox="0 0 20 20" fill="none" xmlns="http://www.w3.org/2000/svg">
<g clip-path="url(#clip0)">
<path d="M10.8838 8.7503V4.30639C11.8344 4.46674 12.7308 4.85682 13.4971 5.44261C13.6499 5.54738 13.8292 5.60421 14.0148 5.60671C14.6094 5.60671 15.0942 5.12823 15.1005 4.53361C15.1017 4.27861 15.002 4.03369 14.8227 3.85189C13.7155 2.90376 12.3268 2.34449 10.8712 2.26117V0.77143C10.8712 0.345957 10.5265 0.00130525 10.101 0.00130525C10.0922 5.52394e-05 10.0833 5.52394e-05 10.0745 5.52394e-05C9.64276 -0.00627295 9.28674 0.338418 9.28041 0.77143V2.21066C6.43983 2.41266 4.50825 4.16752 4.50825 6.50309C4.50825 9.3689 6.94484 10.1643 9.28041 10.7955V15.8454C8.04821 15.6801 6.88675 15.1688 5.93482 14.3684C5.75556 14.2257 5.53334 14.1462 5.30357 14.1411C4.72157 14.1815 4.2734 14.6688 4.28094 15.2521C4.27969 15.5071 4.37942 15.752 4.55868 15.9338C5.86283 17.108 7.53941 17.7834 9.29299 17.8402V19.2289C9.29299 19.2377 9.29424 19.2466 9.29424 19.2554C9.31443 19.6872 9.68182 20.0205 10.1136 19.999C10.5391 19.999 10.8837 19.6544 10.8837 19.2289V17.815C14.3303 17.5877 15.719 15.492 15.719 13.27C15.7191 10.2905 13.2194 9.38155 10.8838 8.7503ZM9.29307 8.34631C7.91696 7.94232 6.84386 7.52571 6.84386 6.3516C6.84386 5.17749 7.81598 4.33162 9.29307 4.21803V8.34631V8.34631ZM10.8838 15.8707V11.2753C12.3104 11.6793 13.4214 12.2221 13.4087 13.5477C13.4087 14.5072 12.7522 15.6434 10.8838 15.8707Z" fill="#A1A1A1"/>
</g>
<defs>
<clipPath id="clip0">
<rect width="20" height="20" fill="white"/>
</clipPath>
</defs>
</svg>
