<svg width="20" height="20" viewBox="0 0 20 20" fill="none" xmlns="http://www.w3.org/2000/svg">
<path d="M5.3125 11.875V11.5625C5.3125 11.4796 5.27958 11.4001 5.22097 11.3415C5.16237 11.2829 5.08288 11.25 5 11.25C4.91712 11.25 4.83763 11.2829 4.77903 11.3415C4.72042 11.4001 4.6875 11.4796 4.6875 11.5625V11.875H4.0625C3.95603 11.875 3.85034 11.8931 3.75 11.9288V11.5625C3.75 11.4796 3.71708 11.4001 3.65847 11.3415C3.59987 11.2829 3.52038 11.25 3.4375 11.25C3.35462 11.25 3.27513 11.2829 3.21653 11.3415C3.15792 11.4001 3.125 11.4796 3.125 11.5625V11.9288C3.02466 11.8931 2.91897 11.875 2.8125 11.875H2.1875V11.5625C2.1875 11.4796 2.15458 11.4001 2.09597 11.3415C2.03737 11.2829 1.95788 11.25 1.875 11.25C1.79212 11.25 1.71263 11.2829 1.65403 11.3415C1.59542 11.4001 1.5625 11.4796 1.5625 11.5625V11.875C1.47962 11.875 1.40013 11.9079 1.34153 11.9665C1.28292 12.0251 1.25 12.1046 1.25 12.1875V12.8125C1.24984 12.9523 1.28116 13.0904 1.34164 13.2164C1.31254 13.2454 1.28947 13.2799 1.27374 13.3178C1.25801 13.3558 1.24994 13.3964 1.25 13.4375V14.0625C1.24984 14.2023 1.28116 14.3404 1.34164 14.4664C1.31254 14.4954 1.28947 14.5299 1.27374 14.5678C1.25801 14.6058 1.24994 14.6464 1.25 14.6875V15.3125C1.25028 15.5611 1.34914 15.7993 1.5249 15.9751C1.70065 16.1509 1.93895 16.2497 2.1875 16.25H3.125V17.1875C3.125 17.2704 3.15792 17.3499 3.21653 17.4085C3.27513 17.4671 3.35462 17.5 3.4375 17.5C3.52038 17.5 3.59987 17.4671 3.65847 17.4085C3.71708 17.3499 3.75 17.2704 3.75 17.1875V16.25H4.6875C4.93606 16.2497 5.17435 16.1509 5.3501 15.9751C5.52586 15.7993 5.62472 15.5611 5.625 15.3125V14.6875C5.62506 14.6464 5.61699 14.6058 5.60126 14.5678C5.58553 14.5299 5.56246 14.4954 5.53336 14.4664C5.59384 14.3404 5.62516 14.2023 5.625 14.0625V13.4375C5.62506 13.3964 5.61699 13.3558 5.60126 13.3178C5.58553 13.2799 5.56246 13.2454 5.53336 13.2164C5.59384 13.0904 5.62516 12.9523 5.625 12.8125V12.1875C5.625 12.1046 5.59208 12.0251 5.53347 11.9665C5.47487 11.9079 5.39538 11.875 5.3125 11.875ZM4.0625 12.5H5V12.8125C4.99991 12.8954 4.96695 12.9748 4.90837 13.0334C4.84978 13.092 4.77035 13.1249 4.6875 13.125H3.75V12.8125C3.75009 12.7296 3.78305 12.6502 3.84163 12.5916C3.90022 12.533 3.97965 12.5001 4.0625 12.5V12.5ZM5 13.75V14.0625C4.99991 14.1454 4.96695 14.2248 4.90837 14.2834C4.84978 14.342 4.77035 14.3749 4.6875 14.375H3.75V14.0625C3.75009 13.9796 3.78305 13.9002 3.84163 13.8416C3.90022 13.783 3.97965 13.7501 4.0625 13.75H5ZM1.875 14.0625V13.75H2.8125C2.89535 13.7501 2.97478 13.783 3.03337 13.8416C3.09195 13.9002 3.12491 13.9796 3.125 14.0625V14.375H2.1875C2.10465 14.3749 2.02522 14.342 1.96663 14.2834C1.90805 14.2248 1.87509 14.1454 1.875 14.0625V14.0625ZM3.125 12.8125V13.125H2.1875C2.10465 13.1249 2.02522 13.092 1.96663 13.0334C1.90805 12.9748 1.87509 12.8954 1.875 12.8125V12.5H2.8125C2.89535 12.5001 2.97478 12.533 3.03337 12.5916C3.09195 12.6502 3.12491 12.7296 3.125 12.8125V12.8125ZM1.875 15.3125V15H2.8125C2.89535 15.0001 2.97478 15.033 3.03337 15.0916C3.09195 15.1502 3.12491 15.2296 3.125 15.3125V15.625H2.1875C2.10465 15.6249 2.02522 15.592 1.96663 15.5334C1.90805 15.4748 1.87509 15.3954 1.875 15.3125V15.3125ZM5 15.3125C4.99991 15.3954 4.96695 15.4748 4.90837 15.5334C4.84978 15.592 4.77035 15.6249 4.6875 15.625H3.75V15.3125C3.75009 15.2296 3.78305 15.1502 3.84163 15.0916C3.90022 15.033 3.97965 15.0001 4.0625 15H5V15.3125Z" fill="#A1A1A1"/>
<path d="M19.8828 11.9435L18.3203 10.6935C18.2649 10.6491 18.196 10.625 18.125 10.625H16.875V9.0625C16.8745 8.64824 16.7098 8.25108 16.4168 7.95816C16.1239 7.66523 15.7268 7.50047 15.3125 7.5H15V3.4375C15 3.35462 14.9671 3.27513 14.9085 3.21653C14.8499 3.15792 14.7704 3.125 14.6875 3.125H12.8125C12.7296 3.125 12.6501 3.15792 12.5915 3.21653C12.5329 3.27513 12.5 3.35462 12.5 3.4375V7.5H12.1875C12.0825 7.49997 11.9778 7.5105 11.875 7.53145V2.8125C11.8745 2.39824 11.7098 2.00108 11.4168 1.70816C11.1239 1.41523 10.7268 1.25047 10.3125 1.25H9.0625C8.64824 1.25047 8.25108 1.41523 7.95816 1.70816C7.66523 2.00108 7.50047 2.39824 7.5 2.8125V6.25H1.5625C1.47962 6.25 1.40013 6.28292 1.34153 6.34153C1.28292 6.40013 1.25 6.47962 1.25 6.5625V7.73871L0.0330078 10.1727C0.0320703 10.1746 0.0314453 10.1766 0.0305469 10.1784C0.0270313 10.1858 0.02375 10.1934 0.0207813 10.2011C0.0195703 10.2043 0.0184375 10.2075 0.0173047 10.2106C0.0146484 10.2184 0.0123047 10.2262 0.0102344 10.2344C0.00941406 10.2375 0.00851563 10.2407 0.0078125 10.2439C0.0059375 10.2523 0.00453125 10.2607 0.00332031 10.2693C0.00292969 10.2722 0.00234375 10.2751 0.00199219 10.278C0.000695584 10.2895 3.05145e-05 10.301 0 10.3125L0 18.4375C0 18.5204 0.032924 18.5999 0.0915291 18.6585C0.150134 18.7171 0.22962 18.75 0.3125 18.75H19.6875C19.7704 18.75 19.8499 18.7171 19.9085 18.6585C19.9671 18.5999 20 18.5204 20 18.4375V12.1875C20 12.1406 19.9895 12.0944 19.9692 12.0521C19.9489 12.0099 19.9194 11.9728 19.8828 11.9435ZM9.375 10.625H9.6875C9.77038 10.625 9.84987 10.6579 9.90847 10.7165C9.96708 10.7751 10 10.8546 10 10.9375C10 11.0204 9.96708 11.0999 9.90847 11.1585C9.84987 11.2171 9.77038 11.25 9.6875 11.25H9.375V10.625ZM11.25 12.8125H12.1339C12.0691 12.9952 11.9493 13.1533 11.7911 13.2652C11.6328 13.3771 11.4438 13.4373 11.25 13.4375H10.3661C10.4309 13.2548 10.5507 13.0967 10.7089 12.9848C10.8672 12.8729 11.0562 12.8127 11.25 12.8125ZM13.75 12.5C13.9617 12.4985 14.1724 12.529 14.375 12.5903V13.6597C14.1724 13.721 13.9617 13.7515 13.75 13.75C13.3127 13.75 12.7846 13.604 12.5764 13.3245C12.6883 13.1455 12.7626 12.9456 12.7946 12.7369C13.0368 12.5872 13.3835 12.5 13.75 12.5ZM10 14.0625C10.3708 14.0625 10.7334 14.1725 11.0417 14.3785C11.35 14.5845 11.5904 14.8774 11.7323 15.22C11.8742 15.5626 11.9113 15.9396 11.839 16.3033C11.7666 16.667 11.588 17.0011 11.3258 17.2633C11.0636 17.5255 10.7295 17.7041 10.3658 17.7765C10.0021 17.8488 9.62508 17.8117 9.28247 17.6698C8.93986 17.5279 8.64702 17.2875 8.44099 16.9792C8.23497 16.6709 8.125 16.3083 8.125 15.9375C8.12555 15.4404 8.32327 14.9638 8.67478 14.6123C9.02629 14.2608 9.50289 14.063 10 14.0625V14.0625ZM8.75 13.7738C8.5154 13.9099 8.30435 14.0831 8.125 14.2866V9.13629L8.75 10.3863V13.7738ZM8.125 7.73867V7.5H9.6875C9.77038 7.5 9.84987 7.53292 9.90847 7.59153C9.96708 7.65013 10 7.72962 10 7.8125C10 7.89538 9.96708 7.97487 9.90847 8.03347C9.84987 8.09208 9.77038 8.125 9.6875 8.125H8.31813L8.125 7.73867ZM7.5 18.125H6.875V10.3863L7.5 9.13629V18.125ZM8.125 17.5884C8.31487 17.804 8.54026 17.9855 8.79141 18.125H8.125V17.5884ZM12.5 15.9375C12.4998 15.833 12.493 15.7286 12.4798 15.625H14.375V18.125H11.2086C11.5996 17.9089 11.9255 17.592 12.1526 17.2074C12.3797 16.8227 12.4997 16.3842 12.5 15.9375V15.9375ZM12.3169 15C12.1626 14.6206 11.9177 14.2847 11.6038 14.0216C11.7976 13.9765 11.9809 13.8947 12.1438 13.7805C12.4752 14.1471 13.0768 14.375 13.75 14.375C13.9603 14.3752 14.1699 14.3519 14.375 14.3054V15H12.3169ZM14.4663 11.9668C14.2325 11.9052 13.9917 11.8743 13.75 11.875C13.279 11.875 12.8354 11.9873 12.4963 12.1875H11.25V11.25H15.3591L14.4922 11.9435C14.4831 11.9508 14.4745 11.9586 14.4663 11.9668V11.9668ZM14.375 3.75V5H13.125V3.75H14.375ZM13.125 5.625H14.375V7.5H13.125V5.625ZM15.3125 8.125C15.5611 8.12529 15.7993 8.22415 15.9751 8.39991C16.1508 8.57566 16.2497 8.81395 16.25 9.0625V10.625H11.25V9.0625C11.2503 8.81395 11.3492 8.57566 11.5249 8.39991C11.7007 8.22415 11.9389 8.12529 12.1875 8.125H15.3125ZM9.0625 1.875H10.3125C10.5611 1.87529 10.7993 1.97415 10.9751 2.14991C11.1508 2.32566 11.2497 2.56395 11.25 2.8125V7.81336C11.056 7.95873 10.8985 8.14731 10.79 8.36413C10.6815 8.58095 10.625 8.82005 10.625 9.0625V12.3184C10.393 12.4201 10.1891 12.5766 10.0308 12.7744C9.87245 12.9722 9.76444 13.2054 9.71598 13.4541C9.601 13.467 9.48706 13.4879 9.375 13.5166V11.875H9.6875C9.93614 11.875 10.1746 11.7762 10.3504 11.6004C10.5262 11.4246 10.625 11.1861 10.625 10.9375C10.625 10.6889 10.5262 10.4504 10.3504 10.2746C10.1746 10.0988 9.93614 10 9.6875 10H9.25563L8.63063 8.75H9.6875C9.93614 8.75 10.1746 8.65123 10.3504 8.47541C10.5262 8.2996 10.625 8.06114 10.625 7.8125C10.625 7.56386 10.5262 7.3254 10.3504 7.14959C10.1746 6.97377 9.93614 6.875 9.6875 6.875H8.125V5.625H9.6875C9.93614 5.625 10.1746 5.52623 10.3504 5.35041C10.5262 5.1746 10.625 4.93614 10.625 4.6875C10.625 4.43886 10.5262 4.2004 10.3504 4.02459C10.1746 3.84877 9.93614 3.75 9.6875 3.75H8.125V2.8125C8.12529 2.56395 8.22415 2.32566 8.39991 2.14991C8.57566 1.97415 8.81395 1.87529 9.0625 1.875V1.875ZM8.125 4.375H9.6875C9.77038 4.375 9.84987 4.40792 9.90847 4.46653C9.96708 4.52513 10 4.60462 10 4.6875C10 4.77038 9.96708 4.84987 9.90847 4.90847C9.84987 4.96708 9.77038 5 9.6875 5H8.125V4.375ZM1.875 6.875H7.5V7.5H1.875V6.875ZM6.28301 10.1727C6.2613 10.2161 6.24999 10.264 6.25 10.3125V18.125H0.625V10.625H5.3125C5.39538 10.625 5.47487 10.5921 5.53347 10.5335C5.59208 10.4749 5.625 10.3954 5.625 10.3125C5.625 10.2296 5.59208 10.1501 5.53347 10.0915C5.47487 10.0329 5.39538 10 5.3125 10H0.818125L1.75563 8.125H7.30687L6.28301 10.1727ZM19.375 18.125H15V12.3377L16.3596 11.25H18.0154L19.375 12.3377V18.125Z" fill="#A1A1A1"/>
<path d="M17.1875 14.375C17.2704 14.3751 17.3498 14.408 17.4084 14.4666C17.467 14.5252 17.4999 14.6046 17.5 14.6875C17.5 14.7704 17.5329 14.8499 17.5915 14.9085C17.6501 14.9671 17.7296 15 17.8125 15C17.8954 15 17.9749 14.9671 18.0335 14.9085C18.0921 14.8499 18.125 14.7704 18.125 14.6875C18.1248 14.4937 18.0645 14.3047 17.9526 14.1465C17.8407 13.9883 17.6826 13.8686 17.5 13.8038V13.4375C17.5 13.3546 17.4671 13.2751 17.4085 13.2165C17.3499 13.1579 17.2704 13.125 17.1875 13.125C17.1046 13.125 17.0251 13.1579 16.9665 13.2165C16.9079 13.2751 16.875 13.3546 16.875 13.4375V13.8038C16.6666 13.8775 16.491 14.0226 16.3791 14.2133C16.2673 14.404 16.2265 14.6281 16.2639 14.846C16.3013 15.0639 16.4145 15.2616 16.5835 15.4042C16.7525 15.5467 16.9664 15.6249 17.1875 15.625C17.2493 15.625 17.3097 15.6433 17.3611 15.6777C17.4125 15.712 17.4526 15.7608 17.4762 15.8179C17.4999 15.875 17.5061 15.9378 17.494 15.9985C17.4819 16.0591 17.4522 16.1148 17.4085 16.1585C17.3648 16.2022 17.3091 16.2319 17.2485 16.244C17.1878 16.2561 17.125 16.2499 17.0679 16.2262C17.0108 16.2026 16.962 16.1625 16.9277 16.1111C16.8933 16.0597 16.875 15.9993 16.875 15.9375C16.875 15.8546 16.8421 15.7751 16.7835 15.7165C16.7249 15.6579 16.6454 15.625 16.5625 15.625C16.4796 15.625 16.4001 15.6579 16.3415 15.7165C16.2829 15.7751 16.25 15.8546 16.25 15.9375C16.2502 16.1313 16.3105 16.3203 16.4224 16.4785C16.5343 16.6367 16.6924 16.7564 16.875 16.8212V17.1875C16.875 17.2704 16.9079 17.3499 16.9665 17.4085C17.0251 17.4671 17.1046 17.5 17.1875 17.5C17.2704 17.5 17.3499 17.4671 17.4085 17.4085C17.4671 17.3499 17.5 17.2704 17.5 17.1875V16.8212C17.7084 16.7475 17.884 16.6024 17.9959 16.4117C18.1077 16.221 18.1485 15.9969 18.1111 15.779C18.0737 15.5611 17.9605 15.3634 17.7915 15.2208C17.6225 15.0783 17.4086 15.0001 17.1875 15C17.1046 15 17.0251 14.9671 16.9665 14.9085C16.9079 14.8499 16.875 14.7704 16.875 14.6875C16.875 14.6046 16.9079 14.5251 16.9665 14.4665C17.0251 14.4079 17.1046 14.375 17.1875 14.375Z" fill="#A1A1A1"/>
<path d="M17.1875 12.5C17.3601 12.5 17.5 12.3601 17.5 12.1875C17.5 12.0149 17.3601 11.875 17.1875 11.875C17.0149 11.875 16.875 12.0149 16.875 12.1875C16.875 12.3601 17.0149 12.5 17.1875 12.5Z" fill="#A1A1A1"/>
</svg>
