<svg width="20" height="20" viewBox="0 0 20 20" fill="none" xmlns="http://www.w3.org/2000/svg">
<g clip-path="url(#clip0)">
<path d="M16.2143 9.7724C18.264 7.92968 18.4319 4.77421 16.5892 2.72444C14.8991 0.844474 12.0702 0.525097 10.0036 1.98098C7.75065 0.391002 4.6354 0.92843 3.04543 3.18131C1.58649 5.24853 1.90457 8.08031 3.78575 9.77236C1.44834 11.0045 -0.0105162 13.4337 7.25123e-05 16.0759V18.2187C7.25123e-05 18.6132 0.319867 18.933 0.714369 18.933H19.2857C19.6802 18.933 20 18.6132 20 18.2187V16.0759C20.0105 13.4337 18.5517 11.0045 16.2143 9.7724ZM12.8571 2.50455C14.8268 2.50238 16.4253 4.09733 16.4275 6.06699C16.4291 7.47173 15.6059 8.74651 14.325 9.32307C14.27 9.34806 14.215 9.37091 14.1593 9.39452C13.983 9.46562 13.8012 9.52221 13.6157 9.56381C13.58 9.57168 13.5442 9.57595 13.5078 9.5831C13.3006 9.62282 13.0903 9.64408 12.8793 9.64668C12.7842 9.64668 12.6885 9.63952 12.5935 9.63098C12.5578 9.63098 12.5221 9.63098 12.4864 9.62383C12.0804 9.57603 11.6855 9.45964 11.3185 9.27955C11.305 9.2731 11.2892 9.27381 11.2757 9.26812C11.2042 9.23384 11.1328 9.20384 11.0693 9.16525C11.075 9.15809 11.0785 9.15026 11.0842 9.14311C11.4118 8.72224 11.67 8.25182 11.8492 7.74955L11.8714 7.68953C11.9528 7.44963 12.0161 7.20396 12.0607 6.95452C12.0671 6.9181 12.0721 6.88307 12.0778 6.84382C12.1191 6.5899 12.1408 6.33322 12.1428 6.07595C12.1408 5.81918 12.119 5.56296 12.0778 5.3095C12.0721 5.27238 12.0671 5.23806 12.0607 5.19881C12.0161 4.94941 11.9528 4.70369 11.8714 4.46379L11.8492 4.40378C11.67 3.9015 11.4117 3.43108 11.0842 3.01021C11.0785 3.00306 11.0749 2.99523 11.0693 2.98807C11.6119 2.6715 12.2289 2.50459 12.8571 2.50455ZM3.57147 6.07599C3.56641 4.10867 5.15709 2.50974 7.12441 2.50468C8.04659 2.50229 8.93378 2.85766 9.59931 3.496C9.64075 3.53601 9.68147 3.57598 9.72144 3.61741C9.84411 3.74594 9.95724 3.88321 10.06 4.02811C10.0915 4.07239 10.12 4.11956 10.1493 4.16526C10.2491 4.3189 10.3368 4.48011 10.4114 4.6474C10.4293 4.68812 10.4429 4.72955 10.4585 4.77024C10.5338 4.95527 10.5931 5.14645 10.6357 5.34165C10.6407 5.36308 10.6422 5.3845 10.6464 5.40664C10.7369 5.85016 10.7369 6.30739 10.6464 6.7509C10.6422 6.77304 10.6407 6.79447 10.6357 6.8159C10.5931 7.0111 10.5339 7.20228 10.4585 7.38731C10.4429 7.42804 10.4292 7.46947 10.4114 7.51015C10.3367 7.67718 10.249 7.83815 10.1493 7.99158C10.12 8.03728 10.0915 8.08445 10.06 8.12873C9.95728 8.27366 9.84411 8.4109 9.72144 8.53943C9.68143 8.58086 9.64071 8.62087 9.59931 8.66084C9.31011 8.93644 8.97668 9.16148 8.61289 9.32655C8.55505 9.35296 8.49646 9.37727 8.4372 9.39799C8.26502 9.46633 8.08785 9.52125 7.90722 9.56226C7.86223 9.57226 7.81577 9.57795 7.77007 9.58582C7.57612 9.62194 7.37946 9.64174 7.18221 9.64513H7.10365C6.9064 9.64178 6.70974 9.62194 6.51579 9.58582C6.47009 9.57795 6.42363 9.57226 6.37864 9.56226C6.19801 9.52125 6.0208 9.46633 5.84866 9.39799C5.78936 9.37443 5.73081 9.35015 5.67297 9.32655C4.39504 8.74957 3.5731 7.47809 3.57147 6.07599ZM12.8571 17.5045H1.42862V16.0759C1.41816 13.6555 2.94318 11.4944 5.22715 10.6931C6.45326 11.2036 7.83243 11.2036 9.05858 10.6931C9.29706 10.7803 9.52946 10.8831 9.75429 11.001C9.90287 11.0774 10.04 11.1645 10.1829 11.2524C10.2757 11.3102 10.37 11.3667 10.4593 11.4303C10.5972 11.5281 10.7272 11.6345 10.855 11.7438C10.9372 11.8153 11.0186 11.8867 11.0957 11.9581C11.2136 12.0695 11.3243 12.1874 11.4307 12.3081C11.5071 12.3953 11.5814 12.4838 11.6521 12.5753C11.7457 12.6953 11.835 12.8181 11.9179 12.9445C11.9893 13.0517 12.0529 13.1631 12.1157 13.2745C12.1871 13.3974 12.2528 13.5202 12.3128 13.6481C12.3728 13.776 12.4257 13.916 12.4771 14.0524C12.5221 14.171 12.57 14.2888 12.6071 14.4095C12.6571 14.5752 12.6921 14.7467 12.7271 14.9181C12.7485 15.0195 12.7764 15.1188 12.7921 15.2216C12.8344 15.5044 12.8561 15.79 12.8571 16.0759V17.5045H12.8571ZM18.5714 17.5045H14.2857V16.0759C14.2857 15.8524 14.2729 15.6309 14.2528 15.4116C14.2471 15.3474 14.2372 15.2838 14.23 15.2195C14.2107 15.0616 14.1886 14.9052 14.1586 14.7502C14.1457 14.684 14.1321 14.6176 14.1178 14.5509C14.0836 14.3919 14.0438 14.2343 13.9986 14.0781C13.9836 14.0266 13.97 13.9745 13.9543 13.9238C13.7543 13.2844 13.4644 12.6767 13.0936 12.1188L13.0657 12.0781C12.9429 11.8957 12.8117 11.7193 12.6721 11.5488L12.6671 11.5424C12.5243 11.3653 12.3693 11.1931 12.2064 11.0302C12.2157 11.0302 12.2257 11.0302 12.2357 11.0302C12.4373 11.0567 12.6403 11.071 12.8436 11.0731H12.8829C13.0711 11.0715 13.2589 11.0593 13.4458 11.0367C13.5043 11.0295 13.5622 11.0188 13.6208 11.0095C13.7727 10.9862 13.9227 10.9559 14.0707 10.9188C14.1129 10.9081 14.1558 10.8981 14.1986 10.886C14.3929 10.8331 14.5838 10.7682 14.77 10.6917C17.0557 11.4922 18.5821 13.6542 18.5714 16.076V17.5045H18.5714Z" fill="#A1A1A1"/>
</g>
<defs>
<clipPath id="clip0">
<rect width="20" height="20" fill="white"/>
</clipPath>
</defs>
</svg>
